<svg width="19" height="24" viewBox="0 0 19 24" fill="none" xmlns="http://www.w3.org/2000/svg">
<path d="M5.33337 7.96154C4.78109 7.96154 4.33337 8.40925 4.33337 8.96154C4.33337 9.51382 4.78109 9.96154 5.33337 9.96154H13.3334C13.8857 9.96154 14.3334 9.51382 14.3334 8.96154C14.3334 8.40925 13.8857 7.96154 13.3334 7.96154H5.33337Z" fill="#6C7278"/>
<path d="M5.33337 11.9615C4.78109 11.9615 4.33337 12.4093 4.33337 12.9615C4.33337 13.5138 4.78109 13.9615 5.33337 13.9615H13.3334C13.8857 13.9615 14.3334 13.5138 14.3334 12.9615C14.3334 12.4093 13.8857 11.9615 13.3334 11.9615H5.33337Z" fill="#6C7278"/>
<path d="M5.33337 15.9615C4.78109 15.9615 4.33337 16.4093 4.33337 16.9615C4.33337 17.5138 4.78109 17.9615 5.33337 17.9615H9.33337C9.88566 17.9615 10.3334 17.5138 10.3334 16.9615C10.3334 16.4093 9.88566 15.9615 9.33337 15.9615H5.33337Z" fill="#6C7278"/>
<path fill-rule="evenodd" clip-rule="evenodd" d="M3.33337 3.96154H6.33337C6.33337 2.30468 7.67652 0.961538 9.33337 0.961538C10.9902 0.961538 12.3334 2.30468 12.3334 3.96154H15.3334C16.9902 3.96154 18.3334 5.30468 18.3334 6.96154V20.9615C18.3334 22.6184 16.9902 23.9615 15.3334 23.9615H3.33337C1.67652 23.9615 0.333374 22.6184 0.333374 20.9615V6.96154C0.333374 5.30468 1.67652 3.96154 3.33337 3.96154ZM9.33337 2.96154C8.78109 2.96154 8.33337 3.40925 8.33337 3.96154H10.3334C10.3334 3.40925 9.88566 2.96154 9.33337 2.96154ZM3.33337 5.96154C2.78109 5.96154 2.33337 6.40925 2.33337 6.96154V20.9615C2.33337 21.5138 2.78109 21.9615 3.33337 21.9615H15.3334C15.8857 21.9615 16.3334 21.5138 16.3334 20.9615V6.96154C16.3334 6.40925 15.8857 5.96154 15.3334 5.96154H3.33337Z" fill="#6C7278"/>
</svg>
