<svg width="22" height="24" viewBox="0 0 22 24" fill="none" xmlns="http://www.w3.org/2000/svg">
<path fill-rule="evenodd" clip-rule="evenodd" d="M15.8396 13.0762C15.8396 15.8376 13.601 18.0762 10.8396 18.0762C8.0782 18.0762 5.83962 15.8376 5.83962 13.0762C5.83962 10.3147 8.0782 8.07616 10.8396 8.07616C13.601 8.07616 15.8396 10.3147 15.8396 13.0762ZM13.8396 13.0762C13.8396 14.733 12.4965 16.0762 10.8396 16.0762C9.18277 16.0762 7.83962 14.733 7.83962 13.0762C7.83962 11.4193 9.18277 10.0762 10.8396 10.0762C12.4965 10.0762 13.8396 11.4193 13.8396 13.0762Z" fill="#FF5003"/>
<path fill-rule="evenodd" clip-rule="evenodd" d="M12.4746 1.44621C11.4804 0.799981 10.1989 0.799983 9.20466 1.44621L1.36512 6.54191C0.385896 7.1784 -0.134932 8.32533 0.0302349 9.4815L1.60437 20.5004C1.8155 21.9784 3.08126 23.0762 4.57421 23.0762H17.105C18.598 23.0762 19.8637 21.9784 20.0749 20.5004L21.649 9.4815C21.8142 8.32534 21.2934 7.1784 20.3141 6.54191L12.4746 1.44621ZM10.2946 3.1231C10.626 2.90769 11.0532 2.90769 11.3846 3.12309L19.2242 8.2188C19.5506 8.43096 19.7242 8.81327 19.6691 9.19866L18.095 20.2176C18.0246 20.7102 17.6027 21.0762 17.105 21.0762H4.57421C4.07656 21.0762 3.65464 20.7102 3.58427 20.2176L2.01013 9.19866C1.95508 8.81327 2.12869 8.43096 2.4551 8.2188L10.2946 3.1231Z" fill="#FF5003"/>
</svg>
