<svg width="24" height="25" viewBox="0 0 24 25" fill="none" xmlns="http://www.w3.org/2000/svg">
<g clip-path="url(#clip0_4526_72)">
<path fill-rule="evenodd" clip-rule="evenodd" d="M12 7.96154C9.23858 7.96154 7 10.2001 7 12.9615C7 15.723 9.23858 17.9615 12 17.9615C14.7614 17.9615 17 15.723 17 12.9615C17 10.2001 14.7614 7.96154 12 7.96154ZM9 12.9615C9 11.3047 10.3431 9.96154 12 9.96154C13.6569 9.96154 15 11.3047 15 12.9615C15 14.6184 13.6569 15.9615 12 15.9615C10.3431 15.9615 9 14.6184 9 12.9615Z" fill="#6C7278"/>
<path fill-rule="evenodd" clip-rule="evenodd" d="M11.9998 0.961538C10.343 0.961538 8.99982 2.30468 8.99982 3.96154V4.47394C7.94579 4.84649 6.98255 5.4094 6.15122 6.12074L5.70552 5.86342C4.27065 5.03499 2.43588 5.52662 1.60745 6.9615C0.779021 8.39638 1.27065 10.2311 2.70552 11.0596L3.15005 11.3162C3.05133 11.8502 2.99982 12.4002 2.99982 12.9615C2.99982 13.5272 3.05213 14.0814 3.15235 14.6193L2.70171 14.8735C1.25595 15.6892 0.753514 17.5278 1.58351 18.9654C2.41087 20.3985 4.24613 20.8849 5.67467 20.0498L6.12968 19.7838C6.96478 20.503 7.93406 21.0718 8.99553 21.4476L8.99126 21.9353C8.97666 23.6023 10.324 24.9615 11.9911 24.9615C13.6376 24.9615 14.9765 23.6343 14.9909 21.9878L14.9956 21.4506C16.0505 21.0784 17.0146 20.5154 17.8466 19.8039L18.2608 20.0454C19.6965 20.8828 21.5393 20.3933 22.3703 18.954C23.1961 17.5236 22.7104 15.6947 21.2836 14.8626L20.8492 14.6092C20.9482 14.0744 20.9998 13.5237 20.9998 12.9615C20.9998 12.3994 20.9482 11.8487 20.8492 11.314L21.2837 11.0605C22.7104 10.2284 23.1961 8.39954 22.3703 6.96916C21.5393 5.5298 19.6964 5.04037 18.2608 5.87774L17.8467 6.11926C17.0157 5.40862 16.0531 4.84623 14.9998 4.47394V3.96154C14.9998 2.30468 13.6567 0.961538 11.9998 0.961538ZM10.9998 3.96154C10.9998 3.40925 11.4475 2.96154 11.9998 2.96154C12.5521 2.96154 12.9998 3.40925 12.9998 3.96154V5.21357C12.9998 5.66986 13.3087 6.06828 13.7506 6.18201C15.0006 6.50376 16.1171 7.16309 16.9962 8.05888C17.3184 8.38719 17.823 8.45335 18.219 8.21921L18.4319 8.09329L18.437 8.09024L19.2684 7.60536C19.747 7.32624 20.3612 7.48938 20.6382 7.96916C20.9135 8.44594 20.7516 9.05556 20.276 9.33294L19.439 9.82112L19.2339 9.93151C18.8224 10.153 18.6191 10.6299 18.7444 11.0802C18.9106 11.6777 18.9998 12.3084 18.9998 12.9615C18.9998 13.6136 18.9109 14.2434 18.7452 14.84C18.6215 15.2852 18.819 15.7572 19.2229 15.9817L19.4332 16.0986L20.276 16.5902C20.7516 16.8676 20.9135 17.4772 20.6382 17.954C20.3612 18.4338 19.747 18.5969 19.2684 18.3178L18.4319 17.8299C18.4233 17.8249 18.4147 17.8201 18.4061 17.8153L18.1813 17.693C17.7893 17.4797 17.3034 17.5519 16.9904 17.8701C16.1122 18.7629 14.9979 19.42 13.7506 19.7411C13.3087 19.8548 12.9998 20.2532 12.9998 20.7095V20.9571L12.991 21.9703C12.9861 22.5191 12.5399 22.9615 11.9911 22.9615C11.4354 22.9615 10.9863 22.5085 10.9912 21.9528L10.9998 20.9703V20.7095C10.9998 20.2532 10.691 19.8548 10.2491 19.7411C8.99055 19.4171 7.86744 18.7511 6.98564 17.846C6.66501 17.5169 6.16138 17.4487 5.76473 17.6805L4.66534 18.3232C4.19403 18.5987 3.58853 18.4382 3.31556 17.9654C3.04173 17.4911 3.20749 16.8845 3.68448 16.6154L4.78653 15.9936C5.18755 15.7674 5.38224 15.2965 5.25813 14.8531C5.09003 14.2526 4.99982 13.6184 4.99982 12.9615C4.99982 12.3114 5.0882 11.6834 5.25301 11.0883C5.3739 10.6518 5.1863 10.1886 4.79575 9.95918L4.57803 9.83127L3.70552 9.32752C3.22723 9.05138 3.06336 8.43979 3.3395 7.9615C3.61564 7.48321 4.22723 7.31933 4.70552 7.59547L5.55515 8.08601L5.75229 8.21C6.15062 8.46056 6.66975 8.39949 6.99906 8.06333C7.87883 7.16527 8.99693 6.50429 10.2491 6.18201C10.691 6.06828 10.9998 5.66986 10.9998 5.21357V3.96154Z" fill="#6C7278"/>
</g>
<defs>
<clipPath id="clip0_4526_72">
<rect width="24" height="24" fill="white" transform="translate(0 0.961538)"/>
</clipPath>
</defs>
</svg>
