<svg width="32" height="33" viewBox="0 0 32 33" fill="none" xmlns="http://www.w3.org/2000/svg">
<path d="M16 3.16663C8.65329 3.16663 2.66663 9.15329 2.66663 16.5C2.66663 23.8466 8.65329 29.8333 16 29.8333C23.3466 29.8333 29.3333 23.8466 29.3333 16.5C29.3333 9.15329 23.3466 3.16663 16 3.16663ZM22.3733 13.4333L14.8133 20.9933C14.6266 21.18 14.3733 21.2866 14.1066 21.2866C13.84 21.2866 13.5866 21.18 13.4 20.9933L9.62663 17.22C9.23996 16.8333 9.23996 16.1933 9.62663 15.8066C10.0133 15.42 10.6533 15.42 11.04 15.8066L14.1066 18.8733L20.96 12.02C21.3466 11.6333 21.9866 11.6333 22.3733 12.02C22.76 12.4066 22.76 13.0333 22.3733 13.4333Z" fill="#EA7E41"/>
</svg>
